<svg width="237" height="32" xmlns="http://www.w3.org/2000/svg"><g fill-rule="nonzero" fill="none"><path fill="#6D6D6D" d="M71.62 22.6h-3.551V9.38h3.551zM94.398 22.6h-3.55V9.38h3.55zM114.242 22.6h-3.551V9.38h3.55zM55.473 22.6v-7.312c0-1.813 1.367-2.896 2.908-2.896 1.636 0 2.927 1.263 2.927 2.896V22.6h3.544v-7.178c0-3.349-2.334-6.315-6.393-6.315-4.366 0-6.543 2.947-6.543 6.315V22.6h3.557zM136.977 22.6v-7.312c0-1.813 1.37-2.896 2.908-2.896 1.636 0 2.926 1.263 2.926 2.896V22.6h3.545v-7.178c0-3.349-2.334-6.315-6.393-6.315-4.366 0-6.543 2.947-6.543 6.315V22.6h3.557zM81.23 17.452l3.629-8.071h3.692L82.462 22.6H80.01l-6.091-13.22H77.6zM98.968 18.57c.901.816 2.295 1.306 3.627 1.306.957 0 1.693-.463 1.693-1.115 0-1.987-6.412-1.28-6.412-5.539 0-2.535 2.457-4.115 5.075-4.115 1.723 0 3.602.651 4.478 1.333l-1.66 2.564c-.685-.49-1.586-.895-2.543-.895-.978 0-1.801.377-1.801 1.057 0 1.72 6.414 1.036 6.414 5.622 0 2.532-2.48 4.089-5.265 4.089-1.829 0-3.77-.631-5.32-1.776l1.714-2.531zM123.84 19.601c2.076 0 3.49-1.61 3.49-3.594 0-1.992-1.414-3.628-3.49-3.628-2.07 0-3.498 1.636-3.498 3.628 0 1.983 1.427 3.594 3.498 3.594m0-10.494c4.012 0 7.034 3.081 7.034 6.9 0 3.818-3.022 6.87-7.034 6.87-4.013 0-7.052-3.052-7.052-6.87 0-3.819 3.04-6.9 7.052-6.9M45.462 9.38v7.315c0 1.81-1.382 2.899-2.926 2.899-1.63 0-2.923-1.27-2.923-2.899V9.38h-3.548v7.18c0 3.342 2.33 6.317 6.394 6.317 4.364 0 6.546-2.947 6.546-6.317V9.38h-3.543z"/><path d="M228.556 19.065c.757.831 1.91 1.456 3.121 1.456 1.133 0 1.925-.7 1.925-1.665 0-1.697-2.454-1.906-4.232-2.943-1.041-.607-1.873-1.512-1.873-3.004 0-2.36 2.175-3.721 4.368-3.721 1.342 0 2.587.32 3.838 1.248l-1.326 1.888c-.53-.49-1.418-.87-2.284-.87-.964 0-2.04.415-2.04 1.435 0 2.136 6.102 1.474 6.102 5.931 0 2.343-2.098 3.966-4.478 3.966-1.777 0-3.423-.736-4.784-1.984l1.663-1.737zm-19.633-9.688h2.552v13.22h-2.552V9.377zm-11.918 6.61c0 2.57 1.967 4.534 4.52 4.534 1.72 0 2.968-.831 3.743-1.832l1.755 1.566c-1.169 1.494-3.134 2.53-5.554 2.53-4.125 0-7.015-3.002-7.015-6.797 0-3.796 2.854-6.8 6.975-6.8 1.966 0 3.65.736 4.841 1.89l-1.646 1.736c-.793-.792-1.909-1.36-3.213-1.36-2.514 0-4.406 2.02-4.406 4.534zm-7.184-6.61h2.552v13.22h-2.552V9.377zm-1.993 0v2.265h-3.496v10.955h-2.552V11.642h-3.498V9.377h9.546zm-17.21 11.144c2.495 0 4.348-2.042 4.348-4.533 0-2.496-1.853-4.534-4.348-4.534-2.496 0-4.35 2.038-4.35 4.534 0 2.491 1.854 4.533 4.35 4.533zm0-11.333c4.082 0 6.9 3.043 6.9 6.8 0 3.76-2.818 6.798-6.9 6.798-4.083 0-6.9-3.039-6.9-6.798 0-3.757 2.817-6.8 6.9-6.8zm-20.708.19h1.798l7.37 8.611V9.377h2.55v13.22h-1.793l-7.374-8.612v8.612h-2.551V9.377zm67.785 8.026h3.718l-1.86-4.32-1.858 4.32zm-4.697 5.193l5.67-13.22h1.794l5.668 13.22h-2.662l-1.25-2.928h-5.31l-1.249 2.928h-2.661z" fill="#929292"/><g><path d="M29.771 17.458c-.263 7.957-6.791 14.336-14.812 14.35-1.416-2.162-1.92-6.422-1.92-12.232 4.303-.028 13.895-.625 16.732-2.118" fill="#1D1DEA"/><path d="M13.295 31.716C6.027 30.919.338 24.882.096 17.458c2.553 1.372 8.719 2.034 10.952 2.112.035 3.05.348 9.344 2.247 12.146" fill="#ED1C24"/><path d="M3.247 16.804C2.2 16.647.914 16.306.089 15.915V5.923c1.11 2.603 3.158 5.882 3.158 10.88M11.332 7.047v8.811c-1.778.946-3.769 1.109-6.4 1.08C4.932 8.79.09 4.21.09 2.852c0-.32.256-.577.576-.577 1.835 0 6.983.755 10.667 4.772" fill="#C626B6"/><path d="M29.778 1.721v14.25c-3.79 1.003-9.636 1.593-16.74 1.615V0c8.072.02 15.012.44 16.74 1.721" fill="#00C473"/></g></g></svg>
